<svg aria-hidden="true" style="position: absolute; width: 0; height: 0; overflow: hidden;" version="1.1" xmlns="http://www.w3.org/2000/svg" xmlns:xlink="http://www.w3.org/2000/svg">
<defs>
<symbol id="icon-arrow-left" viewBox="0 0 20 20">
<title>arrow-left</title>
<path d="M2.5 10l6.5-6.5v3.5h8v6h-8v3.5l-6.5-6.5z"></path>
</symbol>
<symbol id="icon-chevron-left" viewBox="0 0 20 20">
<title>chevron-left</title>
<path d="M12.452 4.516c0.446 0.436 0.481 1.043 0 1.576l-3.747 3.908 3.747 3.908c0.481 0.533 0.446 1.141 0 1.574-0.445 0.436-1.197 0.408-1.615 0-0.418-0.406-4.502-4.695-4.502-4.695-0.223-0.217-0.335-0.502-0.335-0.787s0.112-0.57 0.335-0.789c0 0 4.084-4.287 4.502-4.695s1.17-0.436 1.615 0z"></path>
</symbol>
<symbol id="icon-chevron-right" viewBox="0 0 20 20">
<title>chevron-right</title>
<path d="M9.163 4.516c0.418 0.408 4.502 4.695 4.502 4.695 0.223 0.219 0.335 0.504 0.335 0.789s-0.112 0.57-0.335 0.787c0 0-4.084 4.289-4.502 4.695-0.418 0.408-1.17 0.436-1.615 0-0.446-0.434-0.481-1.041 0-1.574l3.747-3.908-3.747-3.908c-0.481-0.533-0.446-1.141 0-1.576s1.197-0.409 1.615 0z"></path>
</symbol>
<symbol id="icon-chevron-with-circle-down" viewBox="0 0 20 20">
<title>chevron-with-circle-down</title>
<path d="M12.505 8.698l-2.505 2.302-2.506-2.302c-0.198-0.196-0.518-0.196-0.718 0-0.197 0.196-0.197 0.515 0 0.71l2.864 2.807c0.199 0.196 0.52 0.196 0.717 0l2.864-2.807c0.199-0.195 0.198-0.514 0-0.71-0.197-0.196-0.517-0.196-0.716 0zM10 0.4c-5.302 0-9.6 4.298-9.6 9.6 0 5.303 4.298 9.6 9.6 9.6s9.6-4.297 9.6-9.6c0-5.302-4.298-9.6-9.6-9.6zM10 18.354c-4.615 0-8.354-3.74-8.354-8.354s3.739-8.354 8.354-8.354c4.613 0 8.354 3.74 8.354 8.354s-3.741 8.354-8.354 8.354z"></path>
</symbol>
<symbol id="icon-star" viewBox="0 0 20 20">
<title>star</title>
<path d="M10 1.3l2.388 6.722h6.412l-5.232 3.948 1.871 6.928-5.439-4.154-5.438 4.154 1.87-6.928-5.233-3.948h6.412l2.389-6.722z"></path>
</symbol>

<symbol id="icon-facebook" viewBox="0 0 24 24">
<title>facebook</title>
<path d="M22.676 0H1.324C.593 0 0 .593 0 1.324v21.352C0 23.408.593 24 1.324 24h11.494v-9.294H9.689v-3.621h3.129V8.41c0-3.099 1.894-4.785 4.659-4.785 1.325 0 2.464.097 2.796.141v3.24h-1.921c-1.5 0-1.792.721-1.792 1.771v2.311h3.584l-.465 3.63H16.56V24h6.115c.733 0 1.325-.592 1.325-1.324V1.324C24 .593 23.408 0 22.676 0"></path>
</symbol>

<symbol id="icon-twitter" viewBox="0 0 24 24">
<title>twitter</title>
<path d="M23.954 4.569c-.885.389-1.83.654-2.825.775 1.014-.611 1.794-1.574 2.163-2.723-.951.555-2.005.959-3.127 1.184-.896-.959-2.173-1.559-3.591-1.559-2.717 0-4.92 2.203-4.92 4.917 0 .39.045.765.127 1.124C7.691 8.094 4.066 6.13 1.64 3.161c-.427.722-.666 1.561-.666 2.475 0 1.71.87 3.213 2.188 4.096-.807-.026-1.566-.248-2.228-.616v.061c0 2.385 1.693 4.374 3.946 4.827-.413.111-.849.171-1.296.171-.314 0-.615-.03-.916-.086.631 1.953 2.445 3.377 4.604 3.417-1.68 1.319-3.809 2.105-6.102 2.105-.39 0-.779-.023-1.17-.067 2.189 1.394 4.768 2.209 7.557 2.209 9.054 0 13.999-7.496 13.999-13.986 0-.209 0-.42-.015-.63.961-.689 1.8-1.56 2.46-2.548l-.047-.02z"></path>
</symbol>

<symbol id="icon-foursquare" viewBox="0 0 24 24">
<title>foursquare</title>
<path d="M17.727 3.465l-.535 2.799c-.064.303-.445.623-.801.623H11.41c-.562 0-.963.391-.963.945v.614c0 .569.405.96.966.96h4.23c.395 0 .785.436.697.855l-.535 2.76c-.051.24-.314.63-.785.63h-3.457c-.63 0-.818.091-1.239.601-.42.524-4.206 5.069-4.206 5.069-.037.045-.074.029-.074-.015V3.42c0-.359.311-.78.776-.78h10.274c.375 0 .73.356.633.821v.004zm.451 10.98c.145-.578 1.746-8.784 2.281-11.385M18.486 0H5.683C3.918 0 3.4 1.328 3.4 2.164v20.34c0 .94.504 1.291.789 1.405.284.117 1.069.214 1.541-.328 0 0 6.044-7.014 6.146-7.117.165-.157.165-.157.315-.157h3.914c1.65 0 1.906-1.17 2.086-1.86.15-.569 1.754-8.774 2.279-11.385C20.875 1.08 20.365 0 18.49 0h-.004z"></path>
</symbol>

<symbol id="icon-instagram" viewBox="0 0 24 24">
<title>instagram</title>
<path d="M12 0C8.74 0 8.333.015 7.053.072 5.775.132 4.905.333 4.14.63c-.789.306-1.459.717-2.126 1.384S.935 3.35.63 4.14C.333 4.905.131 5.775.072 7.053.012 8.333 0 8.74 0 12s.015 3.667.072 4.947c.06 1.277.261 2.148.558 2.913.306.788.717 1.459 1.384 2.126.667.666 1.336 1.079 2.126 1.384.766.296 1.636.499 2.913.558C8.333 23.988 8.74 24 12 24s3.667-.015 4.947-.072c1.277-.06 2.148-.262 2.913-.558.788-.306 1.459-.718 2.126-1.384.666-.667 1.079-1.335 1.384-2.126.296-.765.499-1.636.558-2.913.06-1.28.072-1.687.072-4.947s-.015-3.667-.072-4.947c-.06-1.277-.262-2.149-.558-2.913-.306-.789-.718-1.459-1.384-2.126C21.319 1.347 20.651.935 19.86.63c-.765-.297-1.636-.499-2.913-.558C15.667.012 15.26 0 12 0zm0 2.16c3.203 0 3.585.016 4.85.071 1.17.055 1.805.249 2.227.415.562.217.96.477 1.382.896.419.42.679.819.896 1.381.164.422.36 1.057.413 2.227.057 1.266.07 1.646.07 4.85s-.015 3.585-.074 4.85c-.061 1.17-.256 1.805-.421 2.227-.224.562-.479.96-.899 1.382-.419.419-.824.679-1.38.896-.42.164-1.065.36-2.235.413-1.274.057-1.649.07-4.859.07-3.211 0-3.586-.015-4.859-.074-1.171-.061-1.816-.256-2.236-.421-.569-.224-.96-.479-1.379-.899-.421-.419-.69-.824-.9-1.38-.165-.42-.359-1.065-.42-2.235-.045-1.26-.061-1.649-.061-4.844 0-3.196.016-3.586.061-4.861.061-1.17.255-1.814.42-2.234.21-.57.479-.96.9-1.381.419-.419.81-.689 1.379-.898.42-.166 1.051-.361 2.221-.421 1.275-.045 1.65-.06 4.859-.06l.045.03zm0 3.678c-3.405 0-6.162 2.76-6.162 6.162 0 3.405 2.76 6.162 6.162 6.162 3.405 0 6.162-2.76 6.162-6.162 0-3.405-2.76-6.162-6.162-6.162zM12 16c-2.21 0-4-1.79-4-4s1.79-4 4-4 4 1.79 4 4-1.79 4-4 4zm7.846-10.405c0 .795-.646 1.44-1.44 1.44-.795 0-1.44-.646-1.44-1.44 0-.794.646-1.439 1.44-1.439.793-.001 1.44.645 1.44 1.439z"></path>
</symbol>

<symbol id="icon-tripadvisor" viewBox="0 0 24 24">
<title>tripadvisor</title>
<path d="M23.011 9.532c.281-1.207 1.175-2.416 1.175-2.416h-4.012c-2.251-1.455-4.981-2.226-8.013-2.226-3.14 0-5.978.78-8.214 2.251H.186s.885 1.186 1.17 2.386C.624 10.534.189 11.749.189 13.084c0 3.316 2.697 6.008 6.012 6.008 1.891 0 3.571-.885 4.681-2.254l1.275 1.916 1.291-1.936c.57.736 1.32 1.336 2.205 1.74 1.455.66 3.092.736 4.592.18 3.106-1.154 4.696-4.621 3.556-7.726-.209-.556-.48-1.051-.81-1.485l.02.005zm-3.171 8.072c-1.2.445-2.505.395-3.67-.143-.824-.383-1.503-.982-1.988-1.727-.201-.299-.375-.623-.503-.971-.146-.395-.22-.803-.259-1.215-.074-.832.045-1.673.405-2.453.54-1.164 1.501-2.051 2.701-2.496 2.49-.914 5.25.361 6.166 2.841.916 2.481-.36 5.245-2.835 6.163h-.017zm-9.668-1.834c-.863 1.271-2.322 2.113-3.973 2.113-2.646 0-4.801-2.156-4.801-4.797 0-2.641 2.156-4.802 4.801-4.802s4.798 2.161 4.798 4.802c0 .164-.03.314-.048.479-.081.811-.341 1.576-.777 2.221v-.016zM3.15 13.023c0 1.641 1.336 2.971 2.971 2.971s2.968-1.33 2.968-2.971c0-1.635-1.333-2.964-2.966-2.964-1.636 0-2.971 1.329-2.971 2.964H3.15zm12.048 0c0 1.641 1.329 2.971 2.968 2.971 1.636 0 2.965-1.33 2.965-2.971 0-1.635-1.329-2.964-2.965-2.964-1.635 0-2.971 1.329-2.971 2.964h.003zm-11.022 0c0-1.071.869-1.943 1.936-1.943 1.064 0 1.949.873 1.949 1.943 0 1.076-.869 1.951-1.949 1.951-1.081 0-1.951-.875-1.951-1.951h.015zm12.033 0c0-1.071.869-1.943 1.949-1.943 1.066 0 1.937.873 1.937 1.943 0 1.076-.87 1.951-1.952 1.951-1.079 0-1.949-.875-1.949-1.951h.015zM12.156 5.94c2.161 0 4.111.389 5.822 1.162-.645.018-1.275.131-1.906.36-1.515.555-2.715 1.665-3.375 3.125-.315.66-.48 1.359-.541 2.065-.225-3.076-2.76-5.515-5.881-5.578C7.986 6.34 9.967 5.94 12.112 5.94h.044z"></path>
</symbol>
</defs>
</svg>